<svg width="27" height="27" viewBox="0 0 27 27" fill="none" xmlns="http://www.w3.org/2000/svg">
<path d="M22.6631 1.81934H4.31057C2.39174 1.81934 0.830566 3.3802 0.830566 5.29934V16.5307C0.830566 18.4455 2.38494 20.0039 4.29821 20.0107V25.1073L11.6227 20.0107H22.6631C24.5819 20.0107 26.1431 18.4495 26.1431 16.5307V5.29934C26.1431 3.3802 24.5819 1.81934 22.6631 1.81934ZM24.6599 16.5307C24.6599 17.6316 23.7641 18.5275 22.6631 18.5275H11.1573L5.78136 22.2685V18.5275H4.31057C3.20948 18.5275 2.31372 17.6316 2.31372 16.5307V5.29934C2.31372 4.1981 3.20948 3.30249 4.31057 3.30249H22.6631C23.7641 3.30249 24.6599 4.1981 24.6599 5.29934V16.5307Z" fill="black"/>
</svg>
