<svg width="1019" height="579" viewBox="0 0 1019 579" fill="none" xmlns="http://www.w3.org/2000/svg">
<path d="M230.528 381.914H150.724C150.162 393.154 149.038 404.394 144.542 412.824C140.046 422.378 132.178 428.56 117.566 428.56C102.954 428.56 95.086 421.816 90.59 412.824C81.036 394.278 79.912 344.26 79.912 295.928C79.912 247.596 81.036 197.578 90.59 179.032C95.086 170.04 102.954 163.296 117.566 163.296C132.178 163.296 140.046 168.916 144.542 178.47C149.038 186.9 150.162 198.14 150.724 209.38H230.528C228.842 171.164 215.354 139.692 194.56 120.022C174.328 100.914 150.724 91.36 117.566 91.36C74.292 91.36 47.878 109.344 29.894 131.824C1.794 166.106 0.108002 218.934 0.108002 295.928C0.108002 372.922 1.794 425.75 29.894 460.032C47.878 482.512 74.292 500.496 117.566 500.496C150.724 500.496 174.328 490.942 194.56 471.834C215.354 452.164 228.842 420.13 230.528 381.914Z" fill="black"/>
<path d="M504.016 378.542C504.016 339.202 498.958 317.284 482.098 299.862C477.602 294.804 470.858 289.746 463.552 285.812C471.42 281.878 477.04 277.382 482.098 272.324C498.958 255.464 504.016 233.546 504.016 204.884C504.016 161.048 496.71 140.254 477.602 121.708C460.18 104.848 433.766 95.856 393.864 95.856H278.092V496H393.864C433.766 496 460.18 487.008 477.04 469.586C497.272 448.792 504.016 424.626 504.016 378.542ZM424.212 372.36C424.212 408.89 415.22 424.064 383.186 424.064H357.896V320.656H383.186C414.096 320.656 424.212 335.83 424.212 372.36ZM424.212 210.504C424.212 239.728 415.22 253.216 384.31 253.216H357.896V167.792H384.31C415.782 167.792 424.212 181.28 424.212 210.504Z" fill="black"/>
<path d="M783.852 295.928C783.852 218.934 782.166 166.106 754.066 131.824C736.082 109.344 709.668 91.36 666.394 91.36C623.12 91.36 596.706 109.344 578.722 131.824C550.622 166.106 548.936 218.934 548.936 295.928C548.936 372.922 550.622 425.75 578.722 460.032C596.706 482.512 623.12 500.496 666.394 500.496C709.668 500.496 736.082 482.512 754.066 460.032C782.166 425.75 783.852 372.922 783.852 295.928ZM704.048 295.928C704.048 344.26 702.924 394.278 693.37 412.824C688.874 421.816 681.006 428.56 666.394 428.56C651.782 428.56 643.914 421.816 639.418 412.824C629.864 394.278 628.74 344.26 628.74 295.928C628.74 247.596 629.864 197.578 639.418 179.032C643.914 170.04 651.782 163.296 666.394 163.296C681.006 163.296 688.874 170.04 693.37 179.032C702.924 197.578 704.048 247.596 704.048 295.928Z" fill="black"/>
<path d="M1018.39 496V424.064H913.858V330.21H1003.78V258.274H913.858V167.792H1018.39V95.856H834.055V496H1018.39ZM1016.7 67.756V0.315979H949.264V67.756H1016.7ZM906.553 67.756V0.315979H839.113V67.756H906.553Z" fill="black"/>
<path d="M635.25 563.2H631C630.95 564.7 630.65 566.25 629.85 567.3C629.3 568 628.4 568.55 627.05 568.55C625.65 568.55 624.7 568 624.1 567.2C622.85 565.5 622.65 562.65 622.65 554.2C622.65 545.75 622.85 542.9 624.1 541.2C624.7 540.4 625.65 539.85 627.05 539.85C628.4 539.85 629.3 540.4 629.85 541.1C630.7 542.15 630.95 543.65 631 545.15H635.25C635.2 542.25 634.35 539.7 632.7 538.1C631.3 536.75 629.55 536 627.05 536C624.25 536 622.3 537.05 620.95 538.6C618.6 541.3 618.35 544.35 618.35 554.2C618.35 564.05 618.6 567.1 620.95 569.8C622.3 571.35 624.25 572.4 627.05 572.4C629.4 572.4 631.15 571.7 632.55 570.45C634.3 568.85 635.2 566.2 635.25 563.2Z" fill="black"/>
<path d="M667.419 572L659.169 536.4H655.019L646.719 572H651.219L652.919 563.6H661.169L662.869 572H667.419ZM660.369 559.75H653.719L657.069 543.35L660.369 559.75Z" fill="black"/>
<path d="M687.36 572V536.4H683.06V551.95H675.16V536.4H670.86V572H675.16V555.85H683.06V572H687.36Z" fill="black"/>
<path d="M714.11 578.35V568.15H711.31V536.4H696.41V550.7C696.41 557.7 695.31 563.35 693.51 568.15H691.26V578.35H695.36V572H710.01V578.35H714.11ZM707.01 568.15H697.91C699.66 563.45 700.56 558.1 700.56 551.65V540.25H707.01V568.15Z" fill="black"/>
<path d="M735.113 546.8C735.113 538.9 732.063 536.4 726.663 536.4H718.663V572H722.963V557.15H726.663C731.963 557.15 735.113 554.6 735.113 546.8ZM730.813 546.8C730.813 551.55 729.413 553.3 726.513 553.3H722.963V540.25H726.513C729.413 540.25 730.813 542 730.813 546.8Z" fill="black"/>
<path d="M753.897 572V568.15H744.447V556.05H752.597V552.2H744.447V540.25H753.897V536.4H740.147V572H753.897Z" fill="black"/>
<path d="M772.891 572V568.15H763.441V556.05H771.591V552.2H763.441V540.25H772.891V536.4H759.141V572H772.891Z" fill="black"/>
<path d="M800.585 572V536.4H796.535L789.385 556.2L782.185 536.4H778.135V572H782.435V547.05L787.985 563.3H790.635L796.285 546.65V572H800.585Z" fill="black"/>
<path d="M836.718 578.35V568.15H833.918V536.4H819.018V550.7C819.018 557.7 817.918 563.35 816.118 568.15H813.868V578.35H817.968V572H832.618V578.35H836.718ZM829.618 568.15H820.518C822.268 563.45 823.168 558.1 823.168 551.65V540.25H829.618V568.15Z" fill="black"/>
<path d="M859.02 572L850.77 536.4H846.62L838.32 572H842.82L844.52 563.6H852.77L854.47 572H859.02ZM851.97 559.75H845.32L848.67 543.35L851.97 559.75Z" fill="black"/>
<path d="M878.962 572V536.4H874.662V551.95H866.762V536.4H862.462V572H866.762V555.85H874.662V572H878.962Z" fill="black"/>
<path d="M902.362 572V536.4H898.412L889.662 561.15V536.4H885.362V572H889.362L898.062 547.3V572H902.362Z" fill="black"/>
<path d="M926.501 572V536.4H911.701V555.35C911.701 567.45 909.301 568.15 906.701 568.15H906.251V572H907.501C912.001 572 915.801 570.6 915.801 556V540.25H922.201V572H926.501Z" fill="black"/>
<path d="M946.671 572V568.15H937.221V556.05H945.371V552.2H937.221V540.25H946.671V536.4H932.921V572H946.671Z" fill="black"/>
<path d="M968.415 572V536.4H964.115V551.95H956.215V536.4H951.915V572H956.215V555.85H964.115V572H968.415Z" fill="black"/>
<path d="M979.115 572V536.4H974.815V572H979.115ZM993.715 572L983.665 553.25L992.815 536.4H988.165L979.215 553.45L988.865 572H993.715Z" fill="black"/>
<path d="M1013.39 554.2C1013.39 544.35 1013.09 541.15 1010.79 538.6C1009.39 537.05 1007.49 536 1004.69 536C1001.89 536 999.987 537.05 998.587 538.6C996.287 541.15 995.987 544.35 995.987 554.2C995.987 564.05 996.287 567.25 998.587 569.8C999.987 571.35 1001.89 572.4 1004.69 572.4C1007.49 572.4 1009.39 571.35 1010.79 569.8C1013.09 567.25 1013.39 564.05 1013.39 554.2ZM1009.09 554.2C1009.09 562.65 1008.84 565.5 1007.59 567.2C1006.99 568 1006.09 568.55 1004.69 568.55C1003.29 568.55 1002.34 568 1001.74 567.2C1000.49 565.5 1000.29 562.65 1000.29 554.2C1000.29 545.75 1000.49 542.9 1001.74 541.2C1002.34 540.4 1003.29 539.85 1004.69 539.85C1006.09 539.85 1006.99 540.4 1007.59 541.2C1008.84 542.9 1009.09 545.75 1009.09 554.2Z" fill="black"/>
</svg>
