<svg width="104" height="30" viewBox="0 0 104 30" fill="none" xmlns="http://www.w3.org/2000/svg">
<g clip-path="url(#clip0)">
<path d="M103.558 0H0V30H103.558V0Z" fill="#FF0000"/>
<path d="M11.6346 5.86548H16.8269L21.8269 19.9039L27.5 5.86548H32.5V23.7501H28.1731V17.1155L28.2692 13.1732L24.0385 23.7501H19.2308L15.5769 12.8847L15.8654 17.1155V23.7501H11.5385V5.86548H11.6346Z" fill="white"/>
<path d="M42.8846 5.86548H48.4615L54.5192 23.7501H50L48.2692 18.5578H42.2115L40.2884 23.7501H35.9615L42.8846 5.86548ZM47.3077 15.3847L45.4808 8.46163L43.3654 15.3847H47.3077Z" fill="white"/>
<path d="M56.4423 20.7693C57.9807 20.3847 59.1346 19.8078 60.0961 17.8847L60.7692 16.5386C58.8461 15.6732 57.8846 13.9424 57.8846 11.9232C57.8846 7.88471 60.7692 5.86548 64.8077 5.86548H71.7307V23.7501H67.4038V17.5962H66.0577C65.7692 17.5962 65.3846 17.5962 65.0961 17.5962L63.8461 19.9039C62.4038 22.5001 60.5769 23.9424 57.1154 24.0386L56.4423 20.7693ZM67.5 14.6155V9.23086H65.673C63.3654 9.23086 62.4038 10.1924 62.4038 11.827C62.4038 13.5578 63.4615 14.5193 66.0577 14.5193H67.5V14.6155Z" fill="white"/>
<path d="M77.0192 5.86548H81.3461V13.5578L87.5 5.86548H92.9807L85.7692 14.2309L93.3653 23.7501H87.8846L81.3461 14.8078V23.7501H77.0192V5.86548Z" fill="white"/>
</g>
<defs>
<clipPath id="clip0">
<rect width="103.558" height="30" fill="white"/>
</clipPath>
</defs>
</svg>
