<svg width="208" height="52" viewBox="0 0 208 52" fill="none" xmlns="http://www.w3.org/2000/svg">
<rect x="9.0531" width="13.0035" height="11.9336" fill="#225F35"/>
<ellipse cx="22.6327" cy="28.3937" rx="22.6327" ry="22.6327" fill="#225F35"/>
<path d="M56.2115 21.3982C57.446 21.3982 58.8451 21.4805 59.9974 22.2212C60.8204 22.715 61.7257 23.7849 61.7257 25.6778C61.7257 27.7354 60.4089 30.1221 56.8699 30.1221H53.8248V35.7185H51.1912V21.3982H56.2115ZM56.2938 28.0646C56.8699 28.0646 57.6929 28.0646 58.3513 27.4885C58.8451 27.077 59.092 26.3362 59.092 25.7601C59.092 25.184 58.8451 24.5256 58.4336 24.1141C57.9398 23.7026 57.2814 23.538 56.4584 23.538H53.9071V28.0646H56.2938Z" fill="#225F35"/>
<path d="M64.1947 26.1715C64.9354 25.5131 66.0053 24.8547 67.6513 24.8547C69.2973 24.8547 70.3673 25.4308 71.108 26.1715C72.1779 27.1592 72.754 28.8052 72.754 30.4512C72.754 32.0972 72.1779 33.6609 71.108 34.7308C70.3673 35.3892 69.2973 36.0477 67.6513 36.0477C66.0053 36.0477 64.9354 35.4715 64.1947 34.7308C63.1248 33.7432 62.5487 32.0972 62.5487 30.4512C62.4664 28.7229 63.0425 27.1592 64.1947 26.1715ZM65.923 33.414C66.1699 33.6609 66.6637 34.1547 67.569 34.1547C68.4743 34.1547 69.0504 33.6609 69.215 33.414C69.3796 33.2494 70.038 32.4264 70.038 30.3689C70.038 28.3937 69.3796 27.5707 69.215 27.3238C68.9681 27.0769 68.4743 26.5831 67.569 26.5831C66.6637 26.5831 66.0876 27.0769 65.923 27.3238C65.7584 27.4884 65.1 28.3114 65.1 30.3689C65.1 32.3441 65.7584 33.2494 65.923 33.414Z" fill="#225F35"/>
<path d="M81.0664 28.9698C81.0664 28.3937 80.8195 27.8176 80.5726 27.4061C80.3257 26.9946 79.8319 26.5831 79.0089 26.5831C78.1858 26.5831 77.6097 26.9946 77.2805 27.5707C76.7867 28.3937 76.7044 29.7928 76.7044 30.3689C76.7044 31.3566 76.869 32.5088 77.2805 33.1672C77.5274 33.5787 78.1035 34.1548 79.0089 34.1548C79.6673 34.1548 80.1611 33.9079 80.5726 33.3318C80.9018 32.9203 81.0664 32.2619 81.1487 31.6858L83.3708 31.9327C83.2062 32.9203 82.7947 33.9902 82.054 34.7309C81.3956 35.307 80.408 35.8008 79.0089 35.8008C77.4451 35.8008 76.3752 35.1424 75.7991 34.5663C74.9761 33.8256 74.2354 32.4265 74.2354 30.2043C74.2354 28.1468 74.8938 26.9946 75.4699 26.3362C76.2106 25.4309 77.5274 24.6902 79.0912 24.6902C80.408 24.6902 81.4779 25.184 82.2186 25.8424C82.877 26.5008 83.2885 27.5707 83.4531 28.476L81.0664 28.9698Z" fill="#225F35"/>
<path d="M91.4363 28.9698C91.4363 28.3937 91.1894 27.8176 90.9425 27.4061C90.6955 26.9946 90.2017 26.5831 89.3787 26.5831C88.5557 26.5831 88.0619 26.9946 87.6504 27.5707C87.1566 28.3937 87.0743 29.7928 87.0743 30.3689C87.0743 31.3566 87.2389 32.5088 87.6504 33.1672C87.8973 33.5787 88.4734 34.1548 89.3787 34.1548C90.0371 34.1548 90.5309 33.9079 90.9425 33.3318C91.2717 32.9203 91.4363 32.2619 91.5186 31.6858L93.7407 31.9327C93.5761 32.9203 93.1646 33.9902 92.4239 34.7309C91.7655 35.307 90.7779 35.8008 89.3787 35.8008C87.815 35.8008 86.7451 35.1424 86.169 34.5663C85.346 33.8256 84.6053 32.4265 84.6053 30.2043C84.6053 28.1468 85.2637 26.9946 85.8398 26.3362C86.5805 25.4309 87.8973 24.6902 89.461 24.6902C90.7778 24.6902 91.8478 25.184 92.5885 25.8424C93.2469 26.5008 93.6584 27.5707 93.823 28.476L91.4363 28.9698Z" fill="#225F35"/>
<path d="M104.851 32.5913C104.44 33.8258 103.699 34.5665 103.123 34.978C102.3 35.5541 101.23 35.8833 100.078 35.8833C98.6787 35.8833 97.1973 35.3072 96.292 34.4019C95.469 33.5789 94.8929 32.0975 94.8929 30.3692C94.8929 28.2293 95.7982 26.7479 96.7858 25.9249C97.3619 25.4311 98.4318 24.7727 99.9956 24.7727C102.053 24.7727 103.288 25.678 104.028 26.6656C104.769 27.6532 105.098 29.0524 105.098 30.2869V30.7807H97.5265C97.5265 30.9453 97.5265 31.8506 97.8557 32.6736C98.4318 33.8258 99.4194 34.155 100.16 34.155C100.736 34.155 101.395 33.9904 102.053 33.4143C102.382 33.0028 102.547 32.6736 102.629 32.3444L104.851 32.5913ZM102.382 29.2993C102.382 28.7231 102.218 27.9824 101.888 27.5709C101.477 26.9948 100.819 26.5833 99.9956 26.5833C99.1725 26.5833 98.5141 26.9948 98.1026 27.4886C97.7734 27.9001 97.4442 28.5585 97.4442 29.2993H102.382Z" fill="#225F35"/>
<path d="M115.304 25.1019V35.801H112.917V26.8302H110.119C110.036 28.3116 110.036 28.8877 109.954 29.8753C109.872 30.9452 109.789 33.3319 108.884 34.5665C108.39 35.2249 107.732 35.5541 107.238 35.6364C106.991 35.7187 106.662 35.7187 106.415 35.7187C106.168 35.7187 106.004 35.7187 105.757 35.6364V33.8258H106.004C106.333 33.8258 106.744 33.6612 106.991 33.4142C107.814 32.7558 107.896 31.2744 107.979 30.0399C108.061 28.4762 108.143 27.5709 108.143 26.0895V24.9373H115.304V25.1019Z" fill="#225F35"/>
<path d="M120.324 28.8876H123.04C123.698 28.8876 125.097 28.9699 125.92 29.8753C126.743 30.616 126.826 31.7682 126.826 32.3443C126.826 33.908 126.167 34.6487 125.756 35.0602C125.591 35.2248 124.768 35.8009 123.287 35.8009H118.019V25.1018H120.406V28.8876H120.324ZM120.324 33.9903H122.217C122.711 33.9903 123.204 33.9903 123.616 33.5788C123.863 33.3319 124.192 32.9204 124.192 32.262C124.192 31.6859 124.027 31.1921 123.534 30.8629C123.122 30.616 122.628 30.5337 122.299 30.5337H120.406V33.9903H120.324Z" fill="#225F35"/>
<path d="M130.282 25.1018L132.258 28.3938L134.315 25.1018H136.537L133.41 29.8753L137.113 35.7186H134.233L131.846 31.6859L129.295 35.7186H127.073L130.694 30.2045L127.402 25.1018H130.282Z" fill="#225F35"/>
<path d="M138.924 26.1715C139.665 25.5131 140.734 24.8547 142.381 24.8547C144.027 24.8547 145.096 25.4308 145.837 26.1715C146.907 27.1592 147.483 28.8052 147.483 30.4512C147.483 32.0972 146.907 33.6609 145.837 34.7308C145.096 35.3892 144.027 36.0477 142.381 36.0477C140.734 36.0477 139.665 35.4715 138.924 34.7308C137.854 33.7432 137.278 32.0972 137.278 30.4512C137.278 28.7229 137.854 27.1592 138.924 26.1715ZM140.734 33.414C140.981 33.6609 141.475 34.1547 142.381 34.1547C143.286 34.1547 143.862 33.6609 144.027 33.414C144.191 33.2494 144.85 32.4264 144.85 30.3689C144.85 28.3937 144.191 27.5707 144.027 27.3238C143.78 27.0769 143.286 26.5831 142.381 26.5831C141.475 26.5831 140.899 27.0769 140.734 27.3238C140.57 27.4884 139.911 28.3114 139.911 30.3689C139.911 32.3441 140.57 33.2494 140.734 33.414Z" fill="#225F35"/>
<path d="M148.8 27.9822C149.129 26.6654 149.952 26.0069 150.528 25.5954C150.858 25.3485 151.845 24.8547 153.573 24.8547C154.643 24.8547 155.713 25.0193 156.454 25.5131C157.606 26.1715 157.935 27.0769 157.935 27.7353C157.935 28.476 157.606 29.8751 155.796 30.0397V30.122C156.454 30.2043 157.112 30.4512 157.524 30.945C157.935 31.3565 158.182 32.0149 158.182 32.7556C158.182 33.8255 157.524 34.7308 156.783 35.3069C155.796 35.9654 154.479 36.0477 153.491 36.0477C152.504 36.0477 151.022 35.9654 149.952 35.1423C149.376 34.6485 148.8 33.9078 148.635 32.9202L150.858 32.5087C150.94 32.8379 151.104 33.3317 151.351 33.6609C151.927 34.3193 152.75 34.3193 153.327 34.3193C153.903 34.3193 154.479 34.237 154.89 33.9078C155.302 33.5786 155.549 33.2494 155.549 32.6733C155.549 32.2618 155.466 31.8503 155.055 31.6034C154.561 31.1919 153.903 31.1096 153.327 31.1096H152.257V29.4636H153.327C153.738 29.4636 154.314 29.3813 154.726 29.2167C155.137 28.9698 155.384 28.6406 155.384 27.9822C155.384 27.653 155.219 27.3238 154.973 27.0769C154.479 26.6654 153.82 26.6654 153.409 26.6654C152.915 26.6654 152.257 26.7477 151.598 27.2415C151.351 27.4884 151.022 27.8176 150.94 28.476L148.8 27.9822Z" fill="#225F35"/>
<path d="M170.527 23.8672H163.614V27.077H166.659C167.729 27.077 168.799 27.1593 169.951 27.9C171.021 28.6407 171.68 29.7106 171.68 31.2743C171.68 32.7557 171.104 33.8256 170.445 34.484C169.375 35.5539 168.223 35.7185 166.988 35.7185H160.322V21.3982H170.61V23.8672H170.527ZM163.614 33.2495H166.33C166.824 33.2495 167.318 33.2495 167.811 32.7557C168.305 32.2619 168.305 31.7681 168.305 31.3566C168.305 30.8628 168.141 30.4513 167.811 30.0398C167.318 29.546 166.742 29.546 166.248 29.546H163.614V33.2495Z" fill="#225F35"/>
<path d="M173.408 28.0647C173.737 26.5833 174.725 25.9249 175.219 25.5957C176.042 25.1019 177.194 24.9373 178.511 24.9373C180.239 24.9373 182.05 25.1842 182.873 26.8302C183.284 27.6532 183.284 28.6408 183.284 29.3815V33.4965C183.284 34.3196 183.366 35.1426 183.613 35.801H180.568C180.486 35.3895 180.404 34.8134 180.404 34.0727C179.992 34.8134 179.004 35.9656 176.865 35.9656C175.877 35.9656 174.889 35.7187 174.149 35.1426C173.49 34.5665 173.079 33.7435 173.079 32.7558C173.079 31.6859 173.573 30.4514 175.383 29.6284C176.535 29.1346 178.428 28.97 179.334 28.97L180.321 28.8877V28.6408C180.321 28.3116 180.321 27.7355 179.992 27.4063C179.581 26.9125 178.84 26.9125 178.511 26.9125C178.099 26.9125 177.523 26.9948 177.111 27.2417C176.865 27.4063 176.453 27.7355 176.371 28.3116L173.408 28.0647ZM179.334 30.6983C178.264 30.7806 177.276 30.8629 176.618 31.6036C176.453 31.8505 176.288 32.0974 176.288 32.5912C176.288 33.085 176.535 33.3319 176.782 33.4965C177.111 33.7434 177.523 33.8258 177.934 33.8258C178.593 33.8258 179.334 33.5788 179.745 33.085C179.827 33.0027 180.321 32.4266 180.321 31.1921V30.616L179.334 30.6983Z" fill="#225F35"/>
<path d="M188.798 25.1018V29.0522H192.173V25.1018H195.3V35.7186H192.173V31.2744H188.798V35.7186H185.671V25.1018H188.798Z" fill="#225F35"/>
<path d="M200.814 25.1016V29.2166H201.637C202.542 29.2166 202.954 28.8051 203.119 28.3113C203.53 27.406 203.53 26.6653 203.942 25.9246C204.271 25.3485 204.682 25.1839 204.929 25.1839H207.481C207.151 25.5131 206.822 25.9246 206.658 26.3361C206.328 26.9945 205.999 28.1467 205.835 28.6405C205.588 29.2989 205.176 29.9573 204.106 30.0396C204.682 30.1219 205.258 30.4511 205.67 31.0272C205.917 31.4388 206.164 31.9326 206.411 32.7556C206.74 33.5786 206.822 33.9078 207.069 34.5662C207.316 35.06 207.398 35.3069 207.727 35.8007H204.929C204.435 35.6361 204.188 35.3069 203.777 34.237C203.448 33.414 203.448 33.0848 203.283 32.6733L203.119 32.2618C202.789 31.4388 202.378 31.2742 201.719 31.2742H200.814V35.7184H197.687V25.0193H200.814V25.1016Z" fill="#225F35"/>
<path fill-rule="evenodd" clip-rule="evenodd" d="M15.8841 28.97L20.6575 24.1965V21.0691L15.8841 25.7602V28.97Z" fill="#FFCB05"/>
<path fill-rule="evenodd" clip-rule="evenodd" d="M15.8841 17.0363L20.6575 12.3452V9.30005L15.8841 13.9912V17.0363Z" fill="#FFCB05"/>
<path fill-rule="evenodd" clip-rule="evenodd" d="M15.8841 20.9868L20.6575 16.2956V13.2505L15.8841 17.9416V20.9868Z" fill="#FFCB05"/>
<path fill-rule="evenodd" clip-rule="evenodd" d="M14.485 9.30011L13.8266 8.724V1.23462H13.1682V7.98329L12.5097 7.40719V1.23462H11.769V6.66648L11.1106 6.09037V1.23462H10.4522V8.3948L15.2257 13.086V1.23462H14.485V9.30011Z" fill="#FFCB05"/>
<path fill-rule="evenodd" clip-rule="evenodd" d="M15.8841 24.937L20.6575 20.1635V17.2007L15.8841 21.8918V24.937Z" fill="#FFCB05"/>
<path fill-rule="evenodd" clip-rule="evenodd" d="M10.4522 24.1965L15.2257 28.97V25.7602L10.4522 21.0691V24.1965Z" fill="#FFCB05"/>
<path fill-rule="evenodd" clip-rule="evenodd" d="M19.9168 6.09037L19.3407 6.66648V1.23462H18.6V7.40719L17.9416 7.98329V1.23462H17.2009V8.724L16.6248 9.30011V1.23462H15.8841V13.086L20.6575 8.3948V1.23462H19.9168V6.09037Z" fill="#FFCB05"/>
<path fill-rule="evenodd" clip-rule="evenodd" d="M10.4522 12.3452L15.2257 17.0363V13.9912L10.4522 9.30005V12.3452Z" fill="#FFCB05"/>
<path fill-rule="evenodd" clip-rule="evenodd" d="M10.4522 16.2956L15.2257 20.9868V17.9416L10.4522 13.2505V16.2956Z" fill="#FFCB05"/>
<path fill-rule="evenodd" clip-rule="evenodd" d="M10.4522 20.1635L15.2257 24.937V21.8918L10.4522 17.2007V20.1635Z" fill="#FFCB05"/>
<path fill-rule="evenodd" clip-rule="evenodd" d="M38.9283 22.7151H27.8177H27.3239C27.5708 22.3036 27.7354 21.8921 27.7354 21.3982C27.7354 19.9991 26.5832 18.8469 25.1841 18.8469C23.785 18.8469 22.715 19.9991 22.715 21.3982C22.715 21.9744 22.8796 22.4682 23.2088 22.8797C22.9619 23.0443 22.8796 23.2912 22.8796 23.5381C22.8796 23.785 23.0442 24.0319 23.2088 24.1965C22.8796 24.608 22.715 25.1018 22.715 25.6779C22.715 27.077 23.8673 28.2292 25.1841 28.2292C26.5832 28.2292 27.7354 27.077 27.7354 25.6779C27.7354 25.1841 27.5708 24.7726 27.3239 24.3611H29.4637H36.0478V24.8549H35.2248V25.5133H36.0478V26.3363H35.2248V27.7354H36.0478V27.077H37.2823V27.7354H38.1053V26.3363H37.2823V25.5133H38.1053V24.7726H37.2823V24.2788H39.0106C39.3398 24.2788 39.5867 24.0319 39.5867 23.7027V23.2912C39.5867 22.962 39.2575 22.7151 38.9283 22.7151ZM26.5009 25.5956C26.5009 26.3363 25.9248 26.9124 25.1841 26.9124C24.4434 26.9124 23.8673 26.3363 23.8673 25.5956C23.8673 25.3487 23.9496 25.1018 24.1142 24.8549L24.4434 24.2788C24.1965 24.1142 24.1142 23.785 24.1142 23.4558C24.1142 23.1266 24.2788 22.8797 24.4434 22.6328L24.1142 22.0567C23.9496 21.8921 23.8673 21.6452 23.8673 21.3982C23.8673 20.6575 24.4434 20.0814 25.1841 20.0814C25.9248 20.0814 26.5009 20.6575 26.5009 21.3982C26.5009 21.8921 25.9248 23.2089 25.9248 23.2089V23.8673C25.8425 23.8673 26.5009 25.1018 26.5009 25.5956Z" fill="#FFCB05"/>
<path fill-rule="evenodd" clip-rule="evenodd" d="M6.09026 21.1514V24.2788C6.09026 27.2416 7.40707 29.2169 8.14778 29.9576C8.55928 30.3691 13.0035 34.731 13.0858 34.8133C14.4849 36.1301 14.7319 36.6239 15.0611 37.3646V33.908C15.0611 30.8629 13.4973 29.6284 12.6743 28.8053C10.7814 26.9947 9.54689 25.7602 8.55928 24.7726C6.58406 22.8797 6.09026 21.1514 6.09026 21.1514Z" fill="white"/>
<path fill-rule="evenodd" clip-rule="evenodd" d="M12.6743 36.6238C10.7814 34.8132 9.54689 33.5787 8.55928 32.5911C6.66636 30.6982 6.09026 29.3813 6.09026 29.3813V32.0973C6.09026 35.0601 7.40707 37.0353 8.14778 37.776C8.55928 38.1875 13.0858 42.5495 13.0858 42.6318C14.4849 43.9486 14.7319 44.607 15.0611 45.43V41.8088C14.9788 38.5991 13.415 37.3645 12.6743 36.6238Z" fill="white"/>
<path fill-rule="evenodd" clip-rule="evenodd" d="M22.5504 7.07788C22.2212 7.07788 21.892 7.07788 21.4805 7.07788V8.5593C21.8097 8.5593 22.1389 8.5593 22.5504 8.5593C33.661 8.5593 42.6318 17.5301 42.6318 28.6407C42.6318 39.7513 33.661 48.7221 22.5504 48.7221C11.4398 48.6398 2.46902 39.669 2.46902 28.5584C2.46902 22.3858 5.26725 16.954 9.62919 13.2504V11.3575C4.44424 15.308 1.0699 21.5628 1.0699 28.5584C1.0699 40.4097 10.6991 50.039 22.5504 50.039C34.4018 50.039 44.031 40.4097 44.031 28.5584C44.031 16.7071 34.4018 7.07788 22.5504 7.07788Z" fill="white"/>
<path fill-rule="evenodd" clip-rule="evenodd" d="M37.7761 39.8336C38.1053 39.3398 38.4345 38.9283 38.6814 38.4345V35.554H37.7761V39.8336Z" fill="white"/>
<path fill-rule="evenodd" clip-rule="evenodd" d="M40.492 34.484C40.6566 34.0725 40.7389 33.661 40.8212 33.2495H37.6938V33.9902H38.1876C39.0106 33.9079 39.9982 33.9079 40.492 34.484Z" fill="white"/>
<path d="M19.6699 33.085H18.8469V41.6442H19.6699V33.085Z" fill="white"/>
<path fill-rule="evenodd" clip-rule="evenodd" d="M16.954 31.439H19.7522C20.4929 31.439 20.9867 31.6036 21.2336 31.8505C21.5628 32.0974 21.6451 32.6735 21.6451 33.3319V41.3151C21.6451 42.0558 21.4805 42.5496 21.2336 42.7965C20.8221 43.208 19.9991 43.208 19.2584 43.208C19.0938 43.208 18.9292 43.208 18.8469 43.208V46.9938C19.0938 47.0761 19.423 47.0761 19.6699 47.1584V44.031C20.9867 44.031 21.8097 43.6195 22.2212 42.7142V47.323C22.3035 47.323 22.3858 47.323 22.4681 47.323C22.6327 47.323 22.7973 47.323 22.9619 47.323V33.3319C22.9619 32.5912 23.1265 32.0974 23.3734 31.7682C23.6203 31.439 24.1965 31.3567 24.8549 31.3567C25.5956 31.3567 26.6655 31.2744 27.1593 31.7682C27.4062 32.0974 27.5708 32.5912 27.5708 33.3319V37.4469H25.6779V33.085H24.8549V47.1584C25.1018 47.1584 25.431 47.0761 25.6779 46.9938V38.4345H27.5708V46.7469C27.9823 46.6646 28.3938 46.5 28.723 46.3354V38.7638C28.723 37.9407 28.9699 37.2823 29.7929 36.9531L28.8053 31.6859H30.7805L31.1097 37.4469H31.3566L31.6858 31.6859H33.7434L32.6734 36.9531C33.5788 37.2823 33.7434 37.8584 33.7434 38.7638V43.7018C34.3195 43.2903 34.8956 42.7965 35.3894 42.3027V31.6036H41.1504C41.1504 31.3567 41.2327 31.1098 41.2327 30.8629H27.9823L28.1469 31.8505C27.7354 31.1098 26.9124 30.6983 25.7602 30.6983H24.9372C23.538 30.6983 22.6327 31.2744 22.3858 32.3443C22.0566 31.1921 21.1513 30.616 19.6699 30.616H16.0487V46.3354C16.2956 46.4177 16.6248 46.5 16.8717 46.5823V31.439H16.954ZM34.5664 37.5292L33.6611 36.6239L34.5664 31.8505V37.5292Z" fill="white"/>
<path fill-rule="evenodd" clip-rule="evenodd" d="M30.9451 45.5124C31.2743 45.3478 31.5212 45.1832 31.8505 45.0186V38.5168H30.9451V45.5124Z" fill="white"/>
</svg>
