<svg width="150" height="30" viewBox="0 0 150 30" fill="none" xmlns="http://www.w3.org/2000/svg">
<g clip-path="url(#clip0)">
<path d="M149.904 0H0V30H149.904V0Z" fill="#0000FF"/>
<path d="M104.519 5.96167H115.577V8.07705H107.211V14.2309H115V16.3463H107.211V23.7501H104.519V5.96167Z" fill="white"/>
<path d="M119.904 5.96167H123.558L129.135 21.7309L135.481 5.96167H138.942V23.7501H136.25V12.7886L136.346 9.61552L130.769 23.7501H127.308L122.404 9.51936L122.596 12.7886V23.7501H119.904V5.96167Z" fill="white"/>
<path d="M17.4038 20.3847C19.7115 20.3847 20.7692 19.8078 20.7692 18.3655C20.7692 16.7309 19.5192 16.154 17.0192 16.154H15.1923V20.3847H17.4038ZM16.7308 13.2694C18.5577 13.2694 19.5192 12.9809 19.5192 11.3463C19.5192 9.80782 18.4615 9.2309 16.5385 9.2309H15.1923V13.2694H16.7308ZM10.9615 5.96167H17.2115C21.5385 5.96167 23.8461 7.50013 23.8461 10.8655C23.8461 12.404 22.9808 13.4617 22.0192 14.0386V14.1347C23.2692 14.5194 25.0961 15.8655 25.0961 18.3655C25.0961 21.6347 23.1731 23.8463 17.8846 23.8463H10.8654V5.96167H10.9615Z" fill="white"/>
<path d="M29.3269 5.96167H40.9615V9.32705H33.5577V13.2694H40.3846V16.3463H33.5577V20.3847H41.5384V23.7501H29.3269V5.96167Z" fill="white"/>
<path d="M45.0961 15C45.0961 8.75002 48.3654 5.6731 54.9038 5.6731C57.5961 5.6731 59.1346 6.15386 60.4807 6.73079L59.3269 9.80771C57.5961 9.32694 56.923 9.13463 55 9.13463C51.7307 9.03848 49.5192 10.8654 49.5192 14.6154C49.5192 18.3654 51.923 20.3846 55.4807 20.3846C57.2115 20.3846 58.2692 20.1923 59.6153 19.9039L60.4807 23.1731C58.75 23.8462 57.3077 24.0385 55 24.0385C48.4615 24.0385 45.0961 20.7692 45.0961 15Z" fill="white"/>
<path d="M68.3653 9.32705H62.7884V5.96167H78.2692V9.32705H72.6923V23.7501H68.3653V9.32705Z" fill="white"/>
<path d="M81.7307 5.96167H85.9615V15.3847L85.8653 17.6924L87.4999 15.1924L93.5576 5.96167H97.7884V23.7501H93.5576V14.3271L93.6538 11.9232L92.0192 14.5194L85.9615 23.7501H81.7307V5.96167Z" fill="white"/>
</g>
<defs>
<clipPath id="clip0">
<rect width="149.904" height="30" fill="white"/>
</clipPath>
</defs>
</svg>
